<mxfile host="app.diagrams.net" modified="2020-11-18T08:06:04.343Z" agent="5.0 (Windows)" etag="boy2ytpqkObZH46LTMR2" version="13.9.9" type="github">
  <diagram name="Page-1" id="55a83fd1-7818-8e21-69c5-c3457e3827bb">
    <mxGraphModel dx="1736" dy="1729" grid="1" gridSize="10" guides="1" tooltips="1" connect="1" arrows="1" fold="1" page="1" pageScale="0.5" pageWidth="1169" pageHeight="1654" background="#ffffff" math="0" shadow="0">
      <root>
        <mxCell id="0" />
        <mxCell id="1" parent="0" />
        <mxCell id="bnl0o0phUVktk9OBC3Qj-48" value="" style="rounded=0;whiteSpace=wrap;html=1;fillColor=none;dashed=1;strokeColor=#CC00CC;fontSize=24;" vertex="1" parent="1">
          <mxGeometry x="160" y="-10" width="880" height="510" as="geometry" />
        </mxCell>
        <mxCell id="bnl0o0phUVktk9OBC3Qj-15" value="" style="rounded=0;whiteSpace=wrap;html=1;fillColor=none;dashed=1;strokeColor=#CC00CC;fontSize=24;" vertex="1" parent="1">
          <mxGeometry x="150" y="-530" width="450" height="340" as="geometry" />
        </mxCell>
        <mxCell id="bnl0o0phUVktk9OBC3Qj-39" value="" style="rounded=0;whiteSpace=wrap;html=1;fillColor=none;dashed=1;strokeColor=#CC00CC;fontSize=24;" vertex="1" parent="1">
          <mxGeometry x="1200" y="330" width="440" height="440" as="geometry" />
        </mxCell>
        <mxCell id="bnl0o0phUVktk9OBC3Qj-19" value="" style="rounded=0;whiteSpace=wrap;html=1;fillColor=none;dashed=1;fontSize=24;strokeColor=#EA6B66;" vertex="1" parent="1">
          <mxGeometry x="160" y="840" width="750" height="490" as="geometry" />
        </mxCell>
        <mxCell id="bnl0o0phUVktk9OBC3Qj-13" value="" style="rounded=0;whiteSpace=wrap;html=1;fillColor=none;dashed=1;strokeColor=#CC00CC;fontSize=24;" vertex="1" parent="1">
          <mxGeometry x="1200" y="-80" width="440" height="300" as="geometry" />
        </mxCell>
        <mxCell id="G7csEVz0UXpxjY1oYoXJ-40" style="edgeStyle=none;rounded=0;sketch=0;orthogonalLoop=1;jettySize=auto;html=1;exitX=0.5;exitY=0;exitDx=0;exitDy=0;exitPerimeter=0;shadow=0;startArrow=oval;startFill=1;startSize=0;endArrow=oval;endFill=1;endSize=0;fontFamily=Helvetica;fontSize=24;strokeColor=#FF0000;" parent="1" source="G7csEVz0UXpxjY1oYoXJ-6" target="G7csEVz0UXpxjY1oYoXJ-19" edge="1">
          <mxGeometry relative="1" as="geometry" />
        </mxCell>
        <mxCell id="G7csEVz0UXpxjY1oYoXJ-6" value="&lt;div style=&quot;font-size: 24px;&quot;&gt;&lt;font style=&quot;font-size: 24px;&quot;&gt;VPN客户端&lt;/font&gt;&lt;/div&gt;&lt;div style=&quot;font-size: 24px;&quot;&gt;&lt;font style=&quot;font-size: 24px;&quot;&gt;10.5.30.6&lt;br style=&quot;font-size: 24px;&quot;&gt;&lt;/font&gt;&lt;/div&gt;" style="verticalAlign=top;verticalLabelPosition=bottom;labelPosition=center;align=center;html=1;outlineConnect=0;fillColor=#CCCCCC;strokeColor=#6881B3;gradientColor=none;gradientDirection=north;strokeWidth=2;shape=mxgraph.networks.laptop;fontSize=24;" parent="1" vertex="1">
          <mxGeometry x="1310" y="30" width="170" height="110" as="geometry" />
        </mxCell>
        <mxCell id="G7csEVz0UXpxjY1oYoXJ-17" style="orthogonalLoop=1;jettySize=auto;html=1;endArrow=classic;endFill=1;shadow=0;sketch=0;rounded=0;endSize=5;startSize=5;startArrow=open;startFill=0;strokeColor=#336600;fontSize=24;edgeStyle=orthogonalEdgeStyle;curved=1;strokeWidth=1;" parent="1" target="G7csEVz0UXpxjY1oYoXJ-20" edge="1">
          <mxGeometry relative="1" as="geometry">
            <mxPoint x="630" y="407.5" as="targetPoint" />
            <mxPoint x="1050" y="980" as="sourcePoint" />
            <Array as="points">
              <mxPoint x="1020" y="670" />
              <mxPoint x="1020" y="183" />
            </Array>
          </mxGeometry>
        </mxCell>
        <mxCell id="G7csEVz0UXpxjY1oYoXJ-19" value="&lt;font style=&quot;font-size: 24px;&quot;&gt;Internet&lt;/font&gt;" style="html=1;outlineConnect=0;fillColor=#CCCCCC;strokeColor=#6881B3;gradientColor=none;gradientDirection=north;strokeWidth=2;shape=mxgraph.networks.cloud;fontSize=24;" parent="1" vertex="1">
          <mxGeometry x="1200" y="-740" width="390" height="200" as="geometry" />
        </mxCell>
        <mxCell id="G7csEVz0UXpxjY1oYoXJ-20" value="&lt;div align=&quot;center&quot;&gt;内网网关&lt;/div&gt;" style="shape=mxgraph.cisco.hubs_and_gateways.generic_gateway;html=1;pointerEvents=1;dashed=0;fillColor=#036897;strokeColor=#ffffff;strokeWidth=2;verticalLabelPosition=bottom;verticalAlign=top;align=center;outlineConnect=0;fontSize=24;" parent="1" vertex="1">
          <mxGeometry x="672" y="132.5" width="116" height="100" as="geometry" />
        </mxCell>
        <mxCell id="G7csEVz0UXpxjY1oYoXJ-39" style="edgeStyle=orthogonalEdgeStyle;rounded=0;sketch=0;orthogonalLoop=1;jettySize=auto;html=1;exitX=0.5;exitY=0;exitDx=0;exitDy=0;exitPerimeter=0;shadow=0;startArrow=oval;startFill=1;startSize=0;endArrow=oval;endFill=1;endSize=0;fontFamily=Helvetica;fontSize=24;strokeColor=#666600;" parent="1" source="G7csEVz0UXpxjY1oYoXJ-21" edge="1">
          <mxGeometry relative="1" as="geometry">
            <Array as="points">
              <mxPoint x="275" y="114" />
              <mxPoint x="275" y="100" />
              <mxPoint x="430" y="100" />
            </Array>
            <mxPoint x="430" y="180" as="targetPoint" />
          </mxGeometry>
        </mxCell>
        <mxCell id="G7csEVz0UXpxjY1oYoXJ-21" value="&lt;div style=&quot;font-size: 24px;&quot; align=&quot;left&quot;&gt;VPN服务器&lt;/div&gt;&lt;div style=&quot;font-size: 24px;&quot; align=&quot;left&quot;&gt;10.196.97.200/20&lt;/div&gt;&lt;div style=&quot;font-size: 24px;&quot; align=&quot;left&quot;&gt;10.5.0.1&lt;br style=&quot;font-size: 24px;&quot;&gt;&lt;/div&gt;" style="shape=mxgraph.cisco.hubs_and_gateways.vpn_gateway;html=1;pointerEvents=1;dashed=0;fillColor=#036897;strokeColor=#ffffff;strokeWidth=2;verticalLabelPosition=bottom;verticalAlign=top;align=left;outlineConnect=0;fontSize=24;" parent="1" vertex="1">
          <mxGeometry x="190" y="140" width="170" height="102.5" as="geometry" />
        </mxCell>
        <mxCell id="G7csEVz0UXpxjY1oYoXJ-22" value="172.16.0.1/6" style="edgeLabel;html=1;align=center;verticalAlign=middle;resizable=0;points=[];fontSize=24;" parent="1" vertex="1" connectable="0">
          <mxGeometry x="820.0046888731031" y="242.49971169249955" as="geometry">
            <mxPoint x="60" y="10" as="offset" />
          </mxGeometry>
        </mxCell>
        <mxCell id="G7csEVz0UXpxjY1oYoXJ-23" value="10.196.97.201/20" style="text;html=1;align=center;verticalAlign=middle;resizable=0;points=[];autosize=1;fontFamily=Helvetica;fontSize=24;" parent="1" vertex="1">
          <mxGeometry x="817" y="108.5" width="200" height="30" as="geometry" />
        </mxCell>
        <mxCell id="G7csEVz0UXpxjY1oYoXJ-27" style="edgeStyle=orthogonalEdgeStyle;rounded=0;sketch=0;orthogonalLoop=1;jettySize=auto;html=1;exitX=0.5;exitY=0;exitDx=0;exitDy=0;exitPerimeter=0;shadow=0;startArrow=oval;startFill=1;startSize=0;endArrow=oval;endFill=1;endSize=0;fontSize=24;entryX=0;entryY=0.5;entryDx=0;entryDy=0;entryPerimeter=0;strokeColor=#666600;" parent="1" source="G7csEVz0UXpxjY1oYoXJ-29" target="G7csEVz0UXpxjY1oYoXJ-20" edge="1">
          <mxGeometry relative="1" as="geometry">
            <mxPoint x="590" y="380" as="targetPoint" />
            <Array as="points">
              <mxPoint x="365" y="330" />
              <mxPoint x="630" y="330" />
              <mxPoint x="630" y="183" />
            </Array>
          </mxGeometry>
        </mxCell>
        <mxCell id="G7csEVz0UXpxjY1oYoXJ-25" value="小工控机" style="shape=mxgraph.cisco.servers.standard_host;html=1;pointerEvents=1;dashed=0;fillColor=#036897;strokeColor=#ffffff;strokeWidth=2;verticalLabelPosition=bottom;verticalAlign=top;align=left;outlineConnect=0;fontSize=24;" parent="1" vertex="1">
          <mxGeometry x="255" y="877.5" width="200" height="92.5" as="geometry" />
        </mxCell>
        <mxCell id="G7csEVz0UXpxjY1oYoXJ-29" value="小工控机" style="shape=mxgraph.cisco.servers.standard_host;html=1;pointerEvents=1;dashed=0;fillColor=#036897;strokeColor=#ffffff;strokeWidth=2;verticalLabelPosition=bottom;verticalAlign=top;align=left;outlineConnect=0;fontSize=24;" parent="1" vertex="1">
          <mxGeometry x="265" y="363.75" width="190" height="92.5" as="geometry" />
        </mxCell>
        <mxCell id="G7csEVz0UXpxjY1oYoXJ-33" value="&lt;div style=&quot;font-size: 24px;&quot;&gt;CMS&lt;br style=&quot;font-size: 24px;&quot;&gt;&lt;/div&gt;&lt;div style=&quot;font-size: 24px;&quot;&gt;172.16.212.111/16&lt;br style=&quot;font-size: 24px;&quot;&gt;&lt;/div&gt;" style="verticalAlign=top;verticalLabelPosition=bottom;labelPosition=center;align=center;html=1;outlineConnect=0;fillColor=#CCCCCC;strokeColor=#6881B3;gradientColor=none;gradientDirection=north;strokeWidth=2;shape=mxgraph.networks.pc;fontSize=24;" parent="1" vertex="1">
          <mxGeometry x="640" y="890" width="160" height="90" as="geometry" />
        </mxCell>
        <mxCell id="G7csEVz0UXpxjY1oYoXJ-38" style="edgeStyle=orthogonalEdgeStyle;rounded=0;sketch=0;orthogonalLoop=1;jettySize=auto;html=1;entryX=0.5;entryY=0;entryDx=0;entryDy=0;entryPerimeter=0;shadow=0;startArrow=oval;startFill=1;startSize=0;endArrow=oval;endFill=1;endSize=0;fontFamily=Helvetica;fontSize=24;strokeColor=#666600;" parent="1" target="G7csEVz0UXpxjY1oYoXJ-20" edge="1">
          <mxGeometry relative="1" as="geometry">
            <Array as="points">
              <mxPoint x="476" y="110" />
              <mxPoint x="730" y="110" />
            </Array>
            <mxPoint x="476" y="180" as="sourcePoint" />
          </mxGeometry>
        </mxCell>
        <mxCell id="G7csEVz0UXpxjY1oYoXJ-41" style="edgeStyle=orthogonalEdgeStyle;rounded=0;sketch=0;orthogonalLoop=1;jettySize=auto;html=1;shadow=0;startArrow=oval;startFill=1;startSize=0;endArrow=oval;endFill=1;endSize=0;fontFamily=Helvetica;fontSize=24;strokeWidth=5;strokeColor=#FF0000;" parent="1" target="G7csEVz0UXpxjY1oYoXJ-19" edge="1" source="bnl0o0phUVktk9OBC3Qj-2">
          <mxGeometry relative="1" as="geometry">
            <mxPoint x="650" y="-360" as="sourcePoint" />
            <mxPoint x="625" y="231" as="targetPoint" />
            <Array as="points">
              <mxPoint x="357" y="-650" />
            </Array>
          </mxGeometry>
        </mxCell>
        <mxCell id="Wh6clQ4jutPT7yRsvnwL-1" value="VPN访问内网工控设备方案1-v1" style="text;html=1;align=center;verticalAlign=middle;resizable=0;points=[];autosize=1;fontSize=30;fontStyle=4;" parent="1" vertex="1">
          <mxGeometry x="760" y="1410" width="440" height="40" as="geometry" />
        </mxCell>
        <mxCell id="bnl0o0phUVktk9OBC3Qj-2" value="&lt;div style=&quot;font-size: 24px;&quot; align=&quot;left&quot;&gt;路由器&lt;br style=&quot;font-size: 24px;&quot;&gt;&lt;/div&gt;" style="shape=mxgraph.cisco.routers.router;html=1;pointerEvents=1;dashed=0;fillColor=#036897;strokeColor=#ffffff;strokeWidth=2;verticalLabelPosition=bottom;verticalAlign=top;align=left;outlineConnect=0;fontSize=24;" vertex="1" parent="1">
          <mxGeometry x="260" y="-510" width="190" height="80" as="geometry" />
        </mxCell>
        <mxCell id="bnl0o0phUVktk9OBC3Qj-4" style="edgeStyle=orthogonalEdgeStyle;rounded=0;orthogonalLoop=1;jettySize=auto;html=1;exitX=0.5;exitY=0;exitDx=0;exitDy=0;exitPerimeter=0;entryX=0.5;entryY=1;entryDx=0;entryDy=0;entryPerimeter=0;endArrow=oval;endFill=1;startArrow=oval;startFill=1;fontSize=24;strokeWidth=2;" edge="1" parent="1" source="bnl0o0phUVktk9OBC3Qj-3" target="bnl0o0phUVktk9OBC3Qj-2">
          <mxGeometry relative="1" as="geometry" />
        </mxCell>
        <mxCell id="bnl0o0phUVktk9OBC3Qj-3" value="&lt;div style=&quot;font-size: 24px&quot; align=&quot;left&quot;&gt;交换机&lt;br style=&quot;font-size: 24px&quot;&gt;&lt;/div&gt;" style="points=[[0.015,0.015,0],[0.985,0.015,0],[0.985,0.985,0],[0.015,0.985,0],[0.25,0,0],[0.5,0,0],[0.75,0,0],[1,0.25,0],[1,0.5,0],[1,0.75,0],[0.75,1,0],[0.5,1,0],[0.25,1,0],[0,0.75,0],[0,0.5,0],[0,0.25,0]];verticalLabelPosition=bottom;html=1;verticalAlign=top;aspect=fixed;align=left;pointerEvents=1;shape=mxgraph.cisco19.rect;prIcon=l2_switch;fillColor=#FAFAFA;strokeColor=#005073;fontSize=24;" vertex="1" parent="1">
          <mxGeometry x="287.5" y="-375" width="135" height="135" as="geometry" />
        </mxCell>
        <mxCell id="bnl0o0phUVktk9OBC3Qj-6" style="edgeStyle=orthogonalEdgeStyle;rounded=0;orthogonalLoop=1;jettySize=auto;html=1;exitX=0.5;exitY=0;exitDx=0;exitDy=0;exitPerimeter=0;entryX=0.5;entryY=1;entryDx=0;entryDy=0;entryPerimeter=0;startArrow=oval;startFill=1;endArrow=oval;endFill=1;fontSize=24;strokeColor=#006600;" edge="1" parent="1" source="bnl0o0phUVktk9OBC3Qj-5" target="bnl0o0phUVktk9OBC3Qj-3">
          <mxGeometry relative="1" as="geometry" />
        </mxCell>
        <mxCell id="bnl0o0phUVktk9OBC3Qj-5" value="交换机" style="points=[[0.015,0.015,0],[0.985,0.015,0],[0.985,0.985,0],[0.015,0.985,0],[0.25,0,0],[0.5,0,0],[0.75,0,0],[1,0.25,0],[1,0.5,0],[1,0.75,0],[0.75,1,0],[0.5,1,0],[0.25,1,0],[0,0.75,0],[0,0.5,0],[0,0.25,0]];verticalLabelPosition=bottom;html=1;verticalAlign=top;aspect=fixed;align=center;pointerEvents=1;shape=mxgraph.cisco19.rect;prIcon=l2_switch;fillColor=#FAFAFA;strokeColor=#005073;fontSize=24;" vertex="1" parent="1">
          <mxGeometry x="400" y="70" width="110" height="110" as="geometry" />
        </mxCell>
        <mxCell id="bnl0o0phUVktk9OBC3Qj-12" value="公司机房" style="text;html=1;align=center;verticalAlign=middle;resizable=0;points=[];autosize=1;fontSize=24;" vertex="1" parent="1">
          <mxGeometry x="475" y="-270" width="110" height="30" as="geometry" />
        </mxCell>
        <mxCell id="bnl0o0phUVktk9OBC3Qj-16" value="" style="html=1;outlineConnect=0;fillColor=#CCCCCC;strokeColor=#6881B3;gradientColor=none;gradientDirection=north;strokeWidth=2;shape=mxgraph.networks.comm_link_edge;html=1;startArrow=oval;startFill=1;endArrow=oval;endFill=1;fontSize=24;" edge="1" parent="1">
          <mxGeometry width="100" height="100" relative="1" as="geometry">
            <mxPoint x="360" y="730" as="sourcePoint" />
            <mxPoint x="400" y="600" as="targetPoint" />
          </mxGeometry>
        </mxCell>
        <mxCell id="bnl0o0phUVktk9OBC3Qj-17" value="" style="html=1;outlineConnect=0;fillColor=#CCCCCC;strokeColor=#6881B3;gradientColor=none;gradientDirection=north;strokeWidth=2;shape=mxgraph.networks.comm_link_edge;html=1;startArrow=oval;startFill=1;endArrow=oval;endFill=1;fontSize=24;" edge="1" parent="1">
          <mxGeometry width="100" height="100" relative="1" as="geometry">
            <mxPoint x="265" y="730" as="sourcePoint" />
            <mxPoint x="305" y="590" as="targetPoint" />
          </mxGeometry>
        </mxCell>
        <mxCell id="bnl0o0phUVktk9OBC3Qj-18" value="中控室" style="text;html=1;align=center;verticalAlign=middle;resizable=0;points=[];autosize=1;fontSize=24;" vertex="1" parent="1">
          <mxGeometry x="910" y="456.25" width="90" height="30" as="geometry" />
        </mxCell>
        <mxCell id="bnl0o0phUVktk9OBC3Qj-20" value="SR9" style="text;html=1;align=center;verticalAlign=middle;resizable=0;points=[];autosize=1;fontSize=24;" vertex="1" parent="1">
          <mxGeometry x="830" y="1280" width="60" height="30" as="geometry" />
        </mxCell>
        <mxCell id="bnl0o0phUVktk9OBC3Qj-26" style="edgeStyle=orthogonalEdgeStyle;rounded=0;orthogonalLoop=1;jettySize=auto;html=1;entryX=0;entryY=0;entryDx=0;entryDy=0;entryPerimeter=0;startArrow=oval;startFill=1;endArrow=oval;endFill=1;fontSize=24;strokeColor=#009900;" edge="1" parent="1" source="bnl0o0phUVktk9OBC3Qj-23" target="G7csEVz0UXpxjY1oYoXJ-33">
          <mxGeometry relative="1" as="geometry">
            <Array as="points">
              <mxPoint x="360" y="1030" />
              <mxPoint x="510" y="1030" />
              <mxPoint x="510" y="930" />
              <mxPoint x="640" y="930" />
            </Array>
          </mxGeometry>
        </mxCell>
        <mxCell id="bnl0o0phUVktk9OBC3Qj-31" style="edgeStyle=orthogonalEdgeStyle;rounded=0;orthogonalLoop=1;jettySize=auto;html=1;startArrow=oval;startFill=1;endArrow=oval;endFill=1;fontSize=24;strokeColor=#009900;" edge="1" parent="1" source="bnl0o0phUVktk9OBC3Qj-23">
          <mxGeometry relative="1" as="geometry">
            <mxPoint x="673.1374939178982" y="1135" as="targetPoint" />
          </mxGeometry>
        </mxCell>
        <mxCell id="bnl0o0phUVktk9OBC3Qj-54" value="" style="edgeStyle=orthogonalEdgeStyle;rounded=0;orthogonalLoop=1;jettySize=auto;html=1;startArrow=oval;startFill=1;startSize=5;endArrow=oval;endFill=1;endSize=5;strokeWidth=2;fontSize=24;strokeColor=#009900;" edge="1" parent="1" source="bnl0o0phUVktk9OBC3Qj-23">
          <mxGeometry relative="1" as="geometry">
            <mxPoint x="295" y="970" as="targetPoint" />
            <Array as="points">
              <mxPoint x="190" y="1175" />
              <mxPoint x="190" y="970" />
            </Array>
          </mxGeometry>
        </mxCell>
        <mxCell id="bnl0o0phUVktk9OBC3Qj-23" value="交换机" style="points=[[0.015,0.015,0],[0.985,0.015,0],[0.985,0.985,0],[0.015,0.985,0],[0.25,0,0],[0.5,0,0],[0.75,0,0],[1,0.25,0],[1,0.5,0],[1,0.75,0],[0.75,1,0],[0.5,1,0],[0.25,1,0],[0,0.75,0],[0,0.5,0],[0,0.25,0]];verticalLabelPosition=bottom;html=1;verticalAlign=top;aspect=fixed;align=center;pointerEvents=1;shape=mxgraph.cisco19.rect;prIcon=l2_switch;fillColor=#FAFAFA;strokeColor=#005073;dashed=1;fontSize=24;" vertex="1" parent="1">
          <mxGeometry x="275" y="1090" width="170" height="170" as="geometry" />
        </mxCell>
        <mxCell id="bnl0o0phUVktk9OBC3Qj-32" value="&lt;div style=&quot;font-size: 24px;&quot;&gt;HMI&lt;/div&gt;&lt;div style=&quot;font-size: 24px;&quot;&gt;172.16.212.112/16&lt;br style=&quot;font-size: 24px;&quot;&gt;&lt;/div&gt;" style="verticalAlign=top;verticalLabelPosition=bottom;labelPosition=center;align=center;html=1;outlineConnect=0;fillColor=#CCCCCC;strokeColor=#6881B3;gradientColor=none;gradientDirection=north;strokeWidth=2;shape=mxgraph.networks.monitor;fontSize=24;" vertex="1" parent="1">
          <mxGeometry x="673" y="1100" width="110" height="110" as="geometry" />
        </mxCell>
        <mxCell id="bnl0o0phUVktk9OBC3Qj-34" value="&lt;div style=&quot;font-size: 24px;&quot;&gt;其它设备与中控室通讯设备和控制设备&lt;/div&gt;&lt;div style=&quot;font-size: 24px;&quot;&gt;SR12...SU8...等&lt;br style=&quot;font-size: 24px;&quot;&gt;&lt;/div&gt;" style="whiteSpace=wrap;html=1;dashed=1;strokeColor=#CC00CC;fillColor=none;fontSize=24;" vertex="1" parent="1">
          <mxGeometry x="960" y="980" width="190" height="150" as="geometry" />
        </mxCell>
        <mxCell id="bnl0o0phUVktk9OBC3Qj-36" value="家" style="text;html=1;align=center;verticalAlign=middle;resizable=0;points=[];autosize=1;fontSize=24;" vertex="1" parent="1">
          <mxGeometry x="1560" y="160" width="40" height="30" as="geometry" />
        </mxCell>
        <mxCell id="bnl0o0phUVktk9OBC3Qj-38" style="rounded=0;orthogonalLoop=1;jettySize=auto;html=1;exitX=0;exitY=0.5;exitDx=0;exitDy=0;exitPerimeter=0;startArrow=oval;startFill=1;startSize=5;endArrow=oval;endFill=1;endSize=5;strokeWidth=5;fontSize=24;edgeStyle=orthogonalEdgeStyle;strokeColor=#666600;entryX=1.008;entryY=0.408;entryDx=0;entryDy=0;entryPerimeter=0;" edge="1" parent="1" source="bnl0o0phUVktk9OBC3Qj-37" target="bnl0o0phUVktk9OBC3Qj-3">
          <mxGeometry relative="1" as="geometry">
            <mxPoint x="420" y="-150" as="targetPoint" />
            <Array as="points">
              <mxPoint x="1140" y="395" />
              <mxPoint x="1140" y="-341" />
            </Array>
          </mxGeometry>
        </mxCell>
        <mxCell id="bnl0o0phUVktk9OBC3Qj-52" style="edgeStyle=orthogonalEdgeStyle;rounded=0;orthogonalLoop=1;jettySize=auto;html=1;exitX=0.5;exitY=1;exitDx=0;exitDy=0;exitPerimeter=0;startArrow=oval;startFill=1;startSize=5;endArrow=oval;endFill=1;endSize=5;strokeWidth=1;fontSize=24;strokeColor=#009900;" edge="1" parent="1" source="bnl0o0phUVktk9OBC3Qj-37" target="bnl0o0phUVktk9OBC3Qj-42">
          <mxGeometry relative="1" as="geometry" />
        </mxCell>
        <mxCell id="bnl0o0phUVktk9OBC3Qj-37" value="" style="points=[[0.015,0.015,0],[0.985,0.015,0],[0.985,0.985,0],[0.015,0.985,0],[0.25,0,0],[0.5,0,0],[0.75,0,0],[1,0.25,0],[1,0.5,0],[1,0.75,0],[0.75,1,0],[0.5,1,0],[0.25,1,0],[0,0.75,0],[0,0.5,0],[0,0.25,0]];verticalLabelPosition=bottom;html=1;verticalAlign=top;aspect=fixed;align=center;pointerEvents=1;shape=mxgraph.cisco19.rect;prIcon=l2_switch;fillColor=#FAFAFA;strokeColor=#005073;fontSize=24;" vertex="1" parent="1">
          <mxGeometry x="1300" y="340" width="110" height="110" as="geometry" />
        </mxCell>
        <mxCell id="bnl0o0phUVktk9OBC3Qj-42" value="&lt;div style=&quot;font-size: 24px;&quot;&gt;诊断PC&lt;/div&gt;&lt;div style=&quot;font-size: 24px;&quot;&gt;10.196.97.247&lt;br style=&quot;font-size: 24px;&quot;&gt;&lt;/div&gt;" style="verticalAlign=top;verticalLabelPosition=bottom;labelPosition=center;align=center;html=1;outlineConnect=0;fillColor=#CCCCCC;strokeColor=#6881B3;gradientColor=none;gradientDirection=north;strokeWidth=2;shape=mxgraph.networks.laptop;fontSize=24;" vertex="1" parent="1">
          <mxGeometry x="1440" y="510" width="170" height="80" as="geometry" />
        </mxCell>
        <mxCell id="bnl0o0phUVktk9OBC3Qj-57" value="码头侯工楼" style="text;html=1;align=center;verticalAlign=middle;resizable=0;points=[];autosize=1;fontSize=24;" vertex="1" parent="1">
          <mxGeometry x="1490" y="710" width="140" height="30" as="geometry" />
        </mxCell>
      </root>
    </mxGraphModel>
  </diagram>
</mxfile>
